<svg aria-hidden="true" style="position: absolute; width: 0; height: 0; overflow: hidden;" version="1.1" xmlns="http://www.w3.org/2000/svg" xmlns:xlink="http://www.w3.org/1999/xlink">
<defs>
<symbol id="icon-logo_batebola" viewBox="0 0 213 32">
<title>logo_batebola</title>
<path fill="#040707" style="fill: var(--color1, #040707)" d="M78.947 21.12h50.448v10.881h-50.448v-10.881z"></path>
<path fill="#000" style="fill: var(--color2, #000)" d="M72.89 0.119h55.354v22.075h-55.354v-22.075z"></path>
<path fill="#efefef" style="fill: var(--color3, #efefef)" d="M76.172 22.365h-75.036c-0.635-0.030-1.138-0.552-1.138-1.192 0-0.021 0.001-0.042 0.002-0.063l-0 0.003v-19.957c0-1.156 1.138-1.156 1.138-1.156h89.474c0.006-0 0.013-0 0.020-0 0.496 0 0.948 0.188 1.288 0.497l-0.002-0.001 10.178 10.18s0.477 0.521 0 0.998l-10.178 10.188c-0.343 0.309-0.798 0.499-1.297 0.503h-0.001z"></path>
<path fill="#efefef" style="fill: var(--color3, #efefef)" d="M128.428 0h83.362c0.635 0.030 1.138 0.552 1.138 1.192 0 0.021-0.001 0.042-0.002 0.063l0-0.003v19.957c0 1.156-1.136 1.156-1.136 1.156h-97.8c-0.001 0-0.002 0-0.003 0-0.5 0-0.955-0.191-1.296-0.504l0.001 0.001-10.18-10.171s-0.475-0.521 0-0.998c2.070-2.068 9.806-9.813 10.18-10.197 0.342-0.309 0.797-0.5 1.297-0.503h0.001z"></path>
<path fill="#000" style="fill: var(--color2, #000)" d="M99.025 10.056h7.047v2.36h-7.047v-2.36z"></path>
<path fill="#000" style="fill: var(--color2, #000)" d="M114.166 20.26v-18.156h14.611q2 0 2.913 0.828t0.918 2.692v2.111q0 2.713-2.99 3.096 3.094 0.389 3.096 3.555v2.322q0 3.555-5.023 3.553zM129.542 7.945v-1.835q0-0.949-0.44-1.266t-1.424-0.31h-10.485v5.032h10.485q1.866 0 1.866-1.619zM129.683 15.618v-1.512q0-1.268-0.439-1.725t-1.567-0.457h-10.485v5.84h10.485q1.125 0 1.567-0.457t0.439-1.688z"></path>
<path fill="#000" style="fill: var(--color2, #000)" d="M139.289 6.398q0-2.5 0.897-3.397t3.366-0.897h12.583q2.47 0 3.348 0.897t0.892 3.397v9.571q0 2.496-0.883 3.393t-3.348 0.897h-12.592q-2.467 0-3.366-0.897t-0.897-3.393zM142.315 17.727h15.024v-13.194h-15.024z"></path>
<path fill="#000" style="fill: var(--color2, #000)" d="M166.192 20.262v-18.156h3.026v15.622h13.759v2.535h-16.786z"></path>
<path fill="#000" style="fill: var(--color2, #000)" d="M187.199 20.26l9.923-18.155h3.237l10.094 18.155h-3.342l-2.323-4.467h-12.28l-2.322 4.467zM193.778 13.469h9.782l-4.891-9.288z"></path>
<path fill="#000" style="fill: var(--color2, #000)" d="M2.907 20.26v-18.156h14.609q2 0 2.914 0.828t0.918 2.692v2.111q0 2.713-2.991 3.096 3.087 0.389 3.087 3.555v2.322q0 3.555-5.021 3.553zM18.283 7.945v-1.835c0-0.633-0.149-1.055-0.44-1.266s-0.767-0.31-1.422-0.31h-10.487v5.032h10.487q1.865 0 1.865-1.619zM18.424 15.618v-1.512c0-0.846-0.145-1.421-0.439-1.725s-0.817-0.457-1.566-0.457h-10.487v5.84h10.487c0.749 0 1.272-0.152 1.566-0.457s0.439-0.868 0.439-1.688z"></path>
<path fill="#000" style="fill: var(--color2, #000)" d="M25.426 20.26l9.923-18.155h3.237l10.094 18.155h-3.338l-2.323-4.467h-12.28l-2.322 4.467zM32.007 13.469h9.78l-4.891-9.288z"></path>
<path fill="#000" style="fill: var(--color2, #000)" d="M60.329 4.568v15.694h-3.025v-15.694h-8.303v-2.463h19.667v2.463h-8.34z"></path>
<path fill="#000" style="fill: var(--color2, #000)" d="M72.892 20.262v-18.156h17.487v2.428h-14.462v5.067h8.831v2.391h-8.831v5.77h14.602v2.5h-17.626z"></path>
<path fill="#fff" style="fill: var(--color4, #fff)" d="M83.12 23.163h2.856c0.053-0.002 0.115-0.003 0.177-0.003 0.458 0 0.903 0.055 1.33 0.157l-0.039-0.008c0.464 0.136 0.859 0.384 1.17 0.713l0.001 0.001c0.323 0.347 0.574 0.766 0.727 1.23l0.007 0.024c0.162 0.505 0.255 1.086 0.255 1.689 0 0.052-0.001 0.103-0.002 0.154l0-0.008c0.001 0.034 0.001 0.073 0.001 0.113 0 0.55-0.087 1.079-0.248 1.575l0.010-0.036c-0.174 0.536-0.459 0.994-0.83 1.367l0-0c-0.304 0.28-0.673 0.493-1.082 0.614l-0.019 0.005c-0.373 0.105-0.801 0.165-1.244 0.165-0.049 0-0.098-0.001-0.147-0.002l0.007 0h-2.936zM84.682 24.472v5.126h1.167c0.043 0.002 0.094 0.002 0.145 0.002 0.283 0 0.559-0.028 0.827-0.080l-0.027 0.004c0.245-0.057 0.458-0.169 0.633-0.323l-0.002 0.001c0.193-0.203 0.336-0.455 0.407-0.735l0.002-0.012c0.102-0.38 0.16-0.817 0.16-1.268 0-0.053-0.001-0.106-0.002-0.159l0 0.008c0.002-0.049 0.003-0.106 0.003-0.164 0-0.432-0.059-0.85-0.168-1.247l0.008 0.033c-0.089-0.294-0.242-0.546-0.444-0.749l0 0c-0.196-0.18-0.441-0.31-0.713-0.365l-0.010-0.002c-0.317-0.049-0.683-0.077-1.055-0.077-0.081 0-0.161 0.001-0.242 0.004l0.012-0z"></path>
<path fill="#fff" style="fill: var(--color4, #fff)" d="M90.933 30.902v-7.739h5.739v1.309h-4.175v1.718h3.885v1.305h-3.885v2.105h4.324v1.305z"></path>
<path fill="#fff" style="fill: var(--color4, #fff)" d="M98.158 23.163h3.094c0.055-0.001 0.119-0.002 0.184-0.002 0.418 0 0.83 0.028 1.234 0.082l-0.047-0.005c0.306 0.050 0.578 0.163 0.814 0.326l-0.007-0.004c0.243 0.17 0.442 0.386 0.588 0.637l0.005 0.009c0.15 0.252 0.239 0.555 0.239 0.88 0 0.009-0 0.018-0 0.026v-0.001c0 0.001 0 0.002 0 0.003 0 0.743-0.442 1.383-1.077 1.672l-0.011 0.005c0.443 0.115 0.816 0.363 1.085 0.699l0.003 0.004c0.237 0.309 0.38 0.702 0.38 1.127 0 0.013-0 0.027-0 0.040l0-0.002c-0.001 0.375-0.092 0.729-0.252 1.041l0.006-0.013c-0.157 0.324-0.384 0.592-0.664 0.792l-0.006 0.004c-0.296 0.201-0.654 0.334-1.040 0.366l-0.008 0.001q-0.391 0.042-1.885 0.053h-2.635zM99.722 24.448v1.789h1.024q0.918 0 1.134-0.028c0.246-0.018 0.465-0.12 0.632-0.278l-0 0c0.142-0.146 0.23-0.346 0.23-0.566 0-0.013-0-0.026-0.001-0.039l0 0.002c0.001-0.011 0.001-0.024 0.001-0.037 0-0.209-0.075-0.4-0.2-0.548l0.001 0.001c-0.15-0.156-0.356-0.257-0.585-0.271l-0.003-0c-0.156-0.017-0.6-0.026-1.336-0.026zM99.722 27.526v2.068h1.446c0.069 0.003 0.15 0.004 0.232 0.004 0.296 0 0.588-0.019 0.874-0.055l-0.034 0.004c0.227-0.037 0.423-0.148 0.566-0.307l0.001-0.001c0.138-0.163 0.222-0.376 0.222-0.608 0-0.017-0-0.034-0.001-0.051l0 0.002c0-0.009 0-0.019 0-0.030 0-0.209-0.063-0.403-0.172-0.565l0.002 0.004c-0.12-0.165-0.287-0.289-0.481-0.352l-0.007-0.002c-0.215-0.073-0.675-0.11-1.387-0.11z"></path>
<path fill="#fff" style="fill: var(--color4, #fff)" d="M112.932 30.902h-1.699l-0.677-1.758h-3.092l-0.639 1.758h-1.652l3.015-7.739h1.652zM110.055 27.841l-1.068-2.872-1.042 2.872z"></path>
<path fill="#fff" style="fill: var(--color4, #fff)" d="M114.702 30.902v-6.424h-2.298v-1.309h6.15v1.309h-2.29v6.424z"></path>
<path fill="#fff" style="fill: var(--color4, #fff)" d="M119.563 30.902v-7.739h5.739v1.309h-4.177v1.718h3.887v1.305h-3.887v2.105h4.324v1.305z"></path>
</symbol>
<symbol id="icon-logo_espnleague" viewBox="0 0 117 32">
<title>logo_espnleague</title>
<path fill="#174fa3" style="fill: var(--color5, #174fa3)" d="M10.11 11.482l-2.484-11.482 8.825 7.832-6.341 3.651z"></path>
<path fill="#174fa3" style="fill: var(--color5, #174fa3)" d="M18.845 18.997l-4.798 10.725-2.473-11.537 7.272 0.812z"></path>
<path fill="#174fa3" style="fill: var(--color5, #174fa3)" d="M18.751 19.181l11.695 1.123-8.81-7.848-2.885 6.725z"></path>
<path fill="#174fa3" style="fill: var(--color5, #174fa3)" d="M11.684 18.381l-11.684-1.229 10.197-5.936 1.487 7.165z"></path>
<path fill="#174fa3" style="fill: var(--color5, #174fa3)" d="M21.804 12.612l4.658-10.786-10.173 5.977 5.515 4.809z"></path>
<path fill="#174fa3" style="fill: var(--color5, #174fa3)" d="M16.289 7.803l4.436 0.901 0.974 3.908-2.948 6.568-7.067-0.8-2.055-2.655 0.568-4.511z"></path>
<path fill="none" stroke="#174fa3" stroke-width="2.1804" stroke-miterlimit="10" stroke-linecap="butt" stroke-linejoin="miter" style="stroke: var(--color5, #174fa3)" d="M11.104 5.125l6.87 6.102 7.928-4.67-3.632 8.506 6.769 6.002-9.173-0.869-3.716 8.303-1.893-8.934-9.139-0.972 7.911-4.586-1.926-8.882z"></path>
<path fill="#d3d3d3" style="fill: var(--color6, #d3d3d3)" d="M25.475 14.962l3.546-10.297-11.048 6.564-6.87-6.104 1.926 8.882-7.911 4.586 9.139 0.972 2.626 11.559 3.955-9.479 12.718 1.296-8.081-7.979z"></path>
<path fill="#ef3e33" style="fill: var(--color7, #ef3e33)" d="M57.413 17.449h3.384l-0.773 6.311h-3.382l0.771-6.311z"></path>
<path fill="#ef3e33" style="fill: var(--color7, #ef3e33)" d="M50.561 17.431h3.4l-0.775 6.329h-3.384l0.759-6.329z"></path>
<path fill="#ef3e33" style="fill: var(--color7, #ef3e33)" d="M50.682 16.324h10.309s0.192-0.897 0.084-1.46c-0.074-0.514-0.359-0.949-0.764-1.222l-0.006-0.004c-0.567-0.383-1.563-0.315-1.554-0.307l-7.648-0.010-0.422 3.006z"></path>
<path fill="#ef3e33" style="fill: var(--color7, #ef3e33)" d="M29.328 16.305s0.061-1.023 0.315-1.547c0.231-0.501 0.609-0.901 1.077-1.155l0.013-0.007c0.254-0.121 0.549-0.218 0.858-0.277l0.023-0.004h16.424s0.688 0.015 0.988 0.136 0.775 0.323 1.023 0.912 0.183 0.758 0.183 1.318-0.008 0.619-0.008 0.619z"></path>
<path fill="#ef3e33" style="fill: var(--color7, #ef3e33)" d="M40.11 17.431h9.904s-0.094 1.146-0.354 1.547c-0.273 0.424-0.511 0.651-0.969 0.755-0.343 0.068-0.739 0.107-1.143 0.108h-4.32l-0.442 3.921h-3.452l0.775-6.33z"></path>
<path fill="#ef3e33" style="fill: var(--color7, #ef3e33)" d="M29.191 17.431h8.384s0.758 0 1.090 0.211c0.357 0.23 0.529 0.529 0.634 0.985s-0.177 2.776-0.353 3.339-0.38 1.090-1.25 1.53c-0.779 0.388-1.956 0.264-1.956 0.264h-7.255l0.422-2.78h6.799l0.136-1.176h-4.68c-0.046 0.004-0.099 0.006-0.153 0.006-0.511 0-0.977-0.193-1.329-0.509l0.002 0.002c-0.44-0.379-0.491-0.942-0.519-1.195-0-0.029-0.001-0.063-0.001-0.097 0-0.206 0.010-0.409 0.029-0.61l-0.002 0.026z"></path>
<path fill="#ef3e33" style="fill: var(--color7, #ef3e33)" d="M19.35 17.397h9.124l-0.283 2.424h-5.704l-0.142 1.16h5.707l-0.354 2.779h-9.139l0.792-6.363z"></path>
<path fill="#ef3e33" style="fill: var(--color7, #ef3e33)" d="M19.878 13.317h9.122l-0.387 2.99h-9.106l0.371-2.99z"></path>
<path fill="#174fa3" style="fill: var(--color5, #174fa3)" d="M65.849 21.852c-0.019 0.15 0.029 0.255 0.179 0.255h4.663l-0.209 1.694h-5.696c-0.837 0-1.156-0.448-1.067-1.165l1.142-9.299h2.033z"></path>
<path fill="#174fa3" style="fill: var(--color5, #174fa3)" d="M80.256 13.33l-0.21 1.705h-4.978c-0.149 0-0.219 0.090-0.238 0.238l-0.289 2.363h3.917l-0.207 1.703h-3.919l-0.305 2.512c-0.019 0.15 0.029 0.255 0.177 0.255h4.978l-0.21 1.694h-5.996c-0.837 0-1.156-0.448-1.068-1.165l0.999-8.133c0.089-0.718 0.518-1.167 1.355-1.167z"></path>
<path fill="#174fa3" style="fill: var(--color5, #174fa3)" d="M86.778 21.628h-3.783l-0.909 2.172h-1.973l4.133-9.498c0.273-0.642 0.545-1.032 1.158-1.032h1.137c0.627 0 0.805 0.375 0.92 1.032l1.772 9.498h-2.078zM83.692 19.985h2.795l-0.818-4.71z"></path>
<path fill="#174fa3" style="fill: var(--color5, #174fa3)" d="M93.762 14.96c-0.658 0-0.963 0.298-1.056 1.047l-0.627 5.113c-0.093 0.747 0.136 1.047 0.797 1.047h2.272c0.672 0 0.981-0.33 1.070-1.047l0.162-1.316h-1.897l0.196-1.599h3.857l-0.347 2.825c-0.222 1.808-1.329 2.915-3.287 2.915h-2.243c-1.973 0-2.809-1.107-2.589-2.915l0.605-4.933c0.222-1.81 1.33-2.915 3.303-2.915h2.362c1.882 0.015 2.676 1.090 2.453 2.87l-0.052 0.418h-1.98l0.055-0.448c0.089-0.718-0.136-1.062-0.796-1.062z"></path>
<path fill="#174fa3" style="fill: var(--color5, #174fa3)" d="M108.483 13.33l-0.954 7.744c-0.219 1.778-1.325 2.87-3.271 2.87h-2.131c-1.928 0-2.765-1.090-2.547-2.87l0.954-7.745h2.018l-0.947 7.714c-0.097 0.777 0.161 1.122 0.833 1.122h1.977c0.681 0 1.013-0.345 1.109-1.122l0.947-7.715z"></path>
<path fill="#174fa3" style="fill: var(--color5, #174fa3)" d="M117.143 13.33l-0.21 1.705h-4.978c-0.149 0-0.219 0.090-0.238 0.238l-0.29 2.363h3.917l-0.209 1.703h-3.917l-0.309 2.512c-0.018 0.15 0.029 0.255 0.179 0.255h4.978l-0.203 1.694h-5.996c-0.837 0-1.156-0.448-1.068-1.165l0.999-8.133c0.089-0.718 0.518-1.167 1.355-1.167z"></path>
</symbol>
<symbol id="icon-logo_resenha" viewBox="0 0 210 32">
<title>logo_resenha</title>
<path fill="#e5e5e5" style="fill: var(--color8, #e5e5e5)" d="M0.362 0.362h208.881v31.277h-208.881v-31.277z"></path>
<path fill="#840000" opacity="0.76" style="fill: var(--color9, #840000)" d="M114.38 27.11h1.401v1.589h-1.401v-1.589z"></path>
<path fill="#db0000" opacity="0.76" style="fill: var(--color10, #db0000)" d="M82.384 27.86h1.336v1.513h-1.336v-1.513z"></path>
<path fill="#db0000" opacity="0.76" style="fill: var(--color10, #db0000)" d="M134.401 28.249h1.336v1.513h-1.336v-1.513z"></path>
<path fill="#db0000" opacity="0.76" style="fill: var(--color10, #db0000)" d="M179.011 27.679h1.336v1.513h-1.336v-1.513z"></path>
<path fill="#db0000" opacity="0.76" style="fill: var(--color10, #db0000)" d="M195.053 27.851h1.197v1.358h-1.197v-1.358z"></path>
<path fill="#db0000" opacity="0.76" style="fill: var(--color10, #db0000)" d="M204.174 24.993h1.197v1.358h-1.197v-1.358z"></path>
<path fill="#db0000" opacity="0.76" style="fill: var(--color10, #db0000)" d="M114.445 20.81h1.345v1.524h-1.345v-1.524z"></path>
<path fill="#f00" opacity="0.76" style="fill: var(--color11, #f00)" d="M42.158 27.003h1.349v1.432h-1.349v-1.432z"></path>
<path fill="#f00" opacity="0.76" style="fill: var(--color11, #f00)" d="M4.406 20.605h1.349v1.434h-1.349v-1.434z"></path>
<path fill="#490101" opacity="0.76" style="fill: var(--color12, #490101)" d="M97.35 28.847h1.806v1.916h-1.806v-1.916z"></path>
<path fill="#490101" opacity="0.76" style="fill: var(--color12, #490101)" d="M33.77 28.616h1.806v1.916h-1.806v-1.916z"></path>
<path fill="#490101" opacity="0.76" style="fill: var(--color12, #490101)" d="M24.722 27.889h1.094v1.161h-1.094v-1.161z"></path>
<path fill="#470303" opacity="0.76" style="fill: var(--color13, #470303)" d="M149.072 28.435h1.005v1.139h-1.005v-1.139z"></path>
<path fill="#470303" opacity="0.76" style="fill: var(--color13, #470303)" d="M174.112 21.041h1.005v1.139h-1.005v-1.139z"></path>
<path fill="#ee3e33" style="fill: var(--color14, #ee3e33)" d="M192.757 13.042h6.501l-1.484 12.129h-6.501l1.484-12.129z"></path>
<path fill="#ee3e33" style="fill: var(--color14, #ee3e33)" d="M179.588 13.005h6.535l-1.49 12.165h-6.503l1.457-12.165z"></path>
<path fill="#ee3e33" style="fill: var(--color14, #ee3e33)" d="M179.821 10.878h19.814s0.362-1.723 0.161-2.802-0.676-1.817-1.481-2.366c-1.085-0.734-3.005-0.604-2.987-0.588l-14.696-0.020-0.812 5.776z"></path>
<path fill="#ee3e33" style="fill: var(--color14, #ee3e33)" d="M138.791 10.845s0.121-1.967 0.607-2.972c0.446-0.963 1.173-1.732 2.075-2.22l0.025-0.013c0.609-0.334 1.694-0.542 1.694-0.542h31.548s1.323 0.031 1.898 0.273c0.615 0.255 1.491 0.622 1.967 1.752s0.362 1.457 0.362 2.531-0.018 1.19-0.018 1.19h-40.15z"></path>
<path fill="#ee3e33" style="fill: var(--color14, #ee3e33)" d="M159.505 13.007h19.033s-0.181 2.202-0.68 2.972c-0.526 0.814-0.982 1.251-1.862 1.446-0.66 0.129-1.42 0.203-2.197 0.204h-8.301l-0.846 7.535h-6.629l1.491-12.163z"></path>
<path fill="#ee3e33" style="fill: var(--color14, #ee3e33)" d="M138.52 13.007h16.111s1.457 0 2.101 0.405c0.685 0.443 1.016 1.016 1.217 1.893s-0.34 5.337-0.678 6.416-0.723 2.106-2.401 2.941c-1.499 0.747-3.76 0.508-3.76 0.508h-13.944l0.812-5.34h13.065l0.271-2.262h-9.001c-0.087 0.007-0.189 0.011-0.291 0.011-0.983 0-1.879-0.37-2.558-0.978l0.004 0.003c-0.844-0.723-0.94-1.808-0.998-2.298-0.001-0.053-0.001-0.115-0.001-0.178 0-0.395 0.019-0.786 0.056-1.171l-0.004 0.049z"></path>
<path fill="#ee3e33" style="fill: var(--color14, #ee3e33)" d="M119.61 12.94h17.532l-0.544 4.659h-10.963l-0.273 2.229h10.968l-0.68 5.342h-17.565l1.524-12.23z"></path>
<path fill="#ee3e33" style="fill: var(--color14, #ee3e33)" d="M120.626 5.102h17.53l-0.745 5.743h-17.498l0.712-5.743z"></path>
<path fill="#ee3e33" style="fill: var(--color14, #ee3e33)" d="M12.208 4.783h3.78q3.78 0 5.12 0.291c0.915 0.206 1.679 0.744 2.174 1.479l0.008 0.013q0.842 1.199 0.844 3.825 0 2.397-0.597 3.221t-2.35 0.991q1.585 0.394 2.133 1.052c0.303 0.336 0.536 0.742 0.672 1.191l0.006 0.022q0.134 0.542 0.134 3.037v5.423h-4.95v-6.826q0-1.649-0.26-2.041t-1.365-0.394v9.261h-5.34zM17.548 8.298v4.567c0.6 0 1.021-0.081 1.265-0.248s0.362-0.7 0.362-1.604v-1.13c0-0.651-0.117-1.085-0.349-1.282s-0.66-0.304-1.271-0.304z"></path>
<path fill="#ee3e33" style="fill: var(--color14, #ee3e33)" d="M26.202 4.783h8.905v4.111h-3.565v3.894h3.337v3.912h-3.337v4.52h3.921v4.111h-9.261z"></path>
<path fill="#ee3e33" style="fill: var(--color14, #ee3e33)" d="M48.315 11.001h-4.961v-1.531q0-1.067-0.19-1.356c-0.128-0.18-0.336-0.296-0.57-0.296-0.023 0-0.045 0.001-0.067 0.003l0.003-0c-0.009-0-0.019-0.001-0.030-0.001-0.293 0-0.55 0.157-0.691 0.391l-0.002 0.004c-0.166 0.262-0.248 0.66-0.248 1.193q0 1.029 0.278 1.549c0.181 0.347 0.68 0.765 1.508 1.256q3.569 2.115 4.494 3.473t0.926 4.378q0 2.195-0.513 3.234t-1.989 1.745c-0.955 0.446-2.073 0.707-3.253 0.707-0.060 0-0.12-0.001-0.18-0.002l0.009 0q-2.144 0-3.661-0.812t-1.989-2.068q-0.47-1.255-0.468-3.565v-1.338h4.961v2.498c0 0.77 0.069 1.265 0.21 1.484s0.387 0.331 0.741 0.331c0.015 0.001 0.032 0.001 0.050 0.001 0.314 0 0.589-0.167 0.742-0.417l0.002-0.004q0.26-0.418 0.26-1.242 0-1.808-0.495-2.374t-2.497-1.866q-1.989-1.318-2.638-1.914c-0.464-0.452-0.829-1.003-1.062-1.62l-0.010-0.031q-0.425-1.052-0.425-2.69 0-2.359 0.602-3.451c0.449-0.763 1.119-1.354 1.92-1.695l0.027-0.010q1.345-0.616 3.254-0.616 2.081 0 3.545 0.673t1.942 1.694q0.477 1.023 0.475 3.471z"></path>
<path fill="#ee3e33" style="fill: var(--color14, #ee3e33)" d="M50.434 4.783h8.907v4.111h-3.565v3.894h3.337v3.912h-3.337v4.52h3.921v4.111h-9.263z"></path>
<path fill="#ee3e33" style="fill: var(--color14, #ee3e33)" d="M73.158 4.783v20.54h-4.682l-2.779-9.337v9.337h-4.465v-20.54h4.465l2.996 9.249v-9.249z"></path>
<path fill="#ee3e33" style="fill: var(--color14, #ee3e33)" d="M87.585 4.783v20.54h-5.342v-8.623h-1.594v8.627h-5.342v-20.544h5.342v7.345h1.598v-7.345z"></path>
<path fill="#ee3e33" style="fill: var(--color14, #ee3e33)" d="M98.961 4.783l3.055 20.54h-5.46l-0.286-3.692h-1.911l-0.322 3.692h-5.521l2.724-20.54zM96.13 17.991q-0.405-3.489-0.814-8.629-0.817 5.901-1.025 8.629z"></path>
</symbol>
<symbol id="icon-logo_sportscenter" viewBox="0 0 283 32">
<title>logo_sportscenter</title>
<path fill="#ca171e" style="fill: var(--color15, #ca171e)" d="M144.072 32c-0.001 0-0.002 0-0.003 0-8.837 0-16.001-7.164-16.001-16.001s7.164-16.001 16.001-16.001c8.837 0 16.001 7.164 16.001 16.001 0 0.004 0 0.008 0 0.012v-0.001c-0.015 8.828-7.17 15.98-15.998 15.99h-0.001zM144.072 1.97c-7.749 0-14.031 6.282-14.031 14.031s6.282 14.031 14.031 14.031c7.746 0 14.026-6.277 14.031-14.022v-0c-0.005-7.749-6.283-14.030-14.030-14.040h-0.001z"></path>
<path fill="#000" style="fill: var(--color2, #000)" d="M14.219 14.851h-7.211c-3.852 0-4.234-0.76-4.234-2.619 0-2.616 1.23-2.965 6.122-2.965h2.587c6.442 0 6.459 0.543 6.497 3.145v0.238h2.772v-0.863c0-3.083-1.307-4.991-7.804-4.991h-5.244c-4.88 0-7.704 0.863-7.704 5.267 0 5.018 2.622 5.467 10.115 5.467h4.627c2.962 0 3.685 0.508 3.685 2.59 0 2.425-0.931 3.092-4.331 3.092h-7.56c-3.112 0-3.738-0.907-3.738-2.369v-1.512h-2.775v1.562c0 4.225 3.506 4.795 6.935 4.795h6.753c3.785 0 7.478-0.388 7.478-4.991v-1.174c0.012-3.215-2.14-4.668-6.97-4.668z"></path>
<path fill="#000" style="fill: var(--color2, #000)" d="M40.083 6.991h-15.065v18.497h2.936v-7.093h11.668c5.578 0 5.872-2.264 5.872-6.263-0.021-4.298-1.996-5.141-5.411-5.141zM27.942 9.466h11.568c2.246 0 3.039 0.634 3.039 2.416v1.718c0 1.603-0.881 2.319-2.839 2.319h-11.768z"></path>
<path fill="#000" style="fill: var(--color2, #000)" d="M64.925 6.791h-10.382c-4.727 0-6.656 2.023-6.656 6.982v4.927c0 4.959 1.929 6.982 6.656 6.982h10.37c4.73 0 6.662-2.023 6.662-6.982v-4.927c0.012-4.959-1.92-6.982-6.65-6.982zM68.662 12.854v6.753c0 2.513-1.192 3.588-3.984 3.588h-9.874c-2.792 0-3.984-1.075-3.984-3.588v-6.753c0-2.513 1.192-3.588 3.984-3.588h9.874c2.783-0.009 3.984 1.075 3.984 3.588z"></path>
<path fill="#000" style="fill: var(--color2, #000)" d="M89.893 6.991h-14.642v18.497h2.936v-7.129h11.644c2.308 0 3.338 0.423 3.338 2.916v4.199h2.772v-4.844c0-1.747-0.705-2.816-2.258-3.359 1.304-0.323 2.481-1.157 2.481-3.479v-1.468c-0.009-3.532-0.978-5.332-6.271-5.332zM78.175 9.466h10.863c3.573 0 4.207 0.634 4.207 2.416v1.644c0 1.421-0.614 2.366-3.611 2.366h-11.451z"></path>
<path fill="#000" style="fill: var(--color2, #000)" d="M97.982 9.466h9.102v16.016h2.924v-16.016h9.102v-2.475h-21.128v2.475z"></path>
<path fill="#000" style="fill: var(--color2, #000)" d="M135.179 14.851h-7.211c-3.849 0-4.234-0.76-4.234-2.619 0-2.616 1.233-2.965 6.125-2.965h2.587c6.442 0 6.459 0.543 6.495 3.145v0.238h2.769v-0.863c0-3.083-1.307-4.991-7.804-4.991h-5.241c-4.877 0-7.701 0.863-7.701 5.267 0 5.018 2.622 5.467 10.115 5.467h4.624c2.962 0 3.688 0.508 3.688 2.59 0 2.425-0.931 3.092-4.334 3.092h-7.56c-3.109 0-3.735-0.907-3.735-2.369v-1.512h-2.775v1.562c0 4.225 3.506 4.795 6.932 4.795h6.753c3.785 0 7.481-0.388 7.481-4.991v-1.174c0.012-3.215-2.143-4.668-6.973-4.668z"></path>
<path fill="#000" style="fill: var(--color2, #000)" d="M164.938 20.315c0 2.296-0.819 2.892-3.984 2.892h-8.541c-2.792 0-3.984-1.075-3.984-3.588v-6.753c0-2.513 1.192-3.588 3.984-3.588h8.456c2.349 0 3.884 0.208 3.884 2.965v1.063h2.625v-1.782c0-3.133-1.979-4.721-5.872-4.721h-9.343c-4.727 0-6.659 2.023-6.659 6.982v4.927c0 4.959 1.932 6.982 6.659 6.982h9.204c5.285 0 6.333-1.932 6.333-5.267v-1.468h-2.763z"></path>
<path fill="#000" style="fill: var(--color2, #000)" d="M174.070 17.199h14.645v-2.475h-14.645v-5.258h15.244v-2.475h-18.168v18.491h18.268v-2.475h-15.344v-5.808z"></path>
<path fill="#000" style="fill: var(--color2, #000)" d="M212.602 22.481l-16.148-15.491h-3.972v18.491h2.924v-15.491l16.145 15.491h3.972v-18.491h-2.921v15.491z"></path>
<path fill="#000" style="fill: var(--color2, #000)" d="M217.699 9.466h9.102v16.016h2.921v-16.016h9.105v-2.475h-21.128v2.475z"></path>
<path fill="#000" style="fill: var(--color2, #000)" d="M244.074 17.199h14.648v-2.475h-14.648v-5.258h15.244v-2.475h-18.168v18.491h18.268v-2.475h-15.344v-5.808z"></path>
<path fill="#000" style="fill: var(--color2, #000)" d="M277.131 6.991h-14.642v18.497h2.936v-7.129h11.644c2.308 0 3.338 0.423 3.338 2.916v4.199h2.775v-4.844c0-1.747-0.705-2.816-2.255-3.359 1.301-0.323 2.478-1.157 2.478-3.479v-1.468c-0.015-3.532-0.984-5.332-6.274-5.332zM265.41 9.466h10.863c3.573 0 4.207 0.634 4.207 2.416v1.644c0 1.421-0.614 2.366-3.611 2.366h-11.451z"></path>
</symbol>
</defs>
</svg>
